<svg width="24" height="24" viewBox="0 0 24 24" fill="none" xmlns="http://www.w3.org/2000/svg">
<path d="M0 12C0 5.37258 5.37258 0 12 0C18.6274 0 24 5.37258 24 12C24 18.6274 18.6274 24 12 24C5.37258 24 0 18.6274 0 12Z" fill="#B6BBC3"/>
<path d="M17 7.5H15.2675L14.4156 6.2225C14.37 6.15409 14.3082 6.098 14.2357 6.05919C14.1632 6.02038 14.0822 6.00005 14 6H10C9.91777 6.00005 9.83682 6.02038 9.76432 6.05919C9.69182 6.098 9.63001 6.15409 9.58437 6.2225L8.73187 7.5H7C6.60218 7.5 6.22064 7.65804 5.93934 7.93934C5.65804 8.22064 5.5 8.60218 5.5 9V16C5.5 16.3978 5.65804 16.7794 5.93934 17.0607C6.22064 17.342 6.60218 17.5 7 17.5H17C17.3978 17.5 17.7794 17.342 18.0607 17.0607C18.342 16.7794 18.5 16.3978 18.5 16V9C18.5 8.60218 18.342 8.22064 18.0607 7.93934C17.7794 7.65804 17.3978 7.5 17 7.5ZM17.5 16C17.5 16.1326 17.4473 16.2598 17.3536 16.3536C17.2598 16.4473 17.1326 16.5 17 16.5H7C6.86739 16.5 6.74021 16.4473 6.64645 16.3536C6.55268 16.2598 6.5 16.1326 6.5 16V9C6.5 8.86739 6.55268 8.74021 6.64645 8.64645C6.74021 8.55268 6.86739 8.5 7 8.5H9C9.08234 8.50005 9.16342 8.47977 9.23603 8.44096C9.30865 8.40214 9.37055 8.34599 9.41625 8.2775L10.2675 7H13.7319L14.5837 8.2775C14.6294 8.34599 14.6914 8.40214 14.764 8.44096C14.8366 8.47977 14.9177 8.50005 15 8.5H17C17.1326 8.5 17.2598 8.55268 17.3536 8.64645C17.4473 8.74021 17.5 8.86739 17.5 9V16ZM12 9.5C11.4561 9.5 10.9244 9.66128 10.4722 9.96346C10.0199 10.2656 9.66747 10.6951 9.45933 11.1976C9.25119 11.7001 9.19673 12.2531 9.30284 12.7865C9.40895 13.3199 9.67086 13.8099 10.0555 14.1945C10.4401 14.5791 10.9301 14.8411 11.4635 14.9472C11.9969 15.0533 12.5499 14.9988 13.0524 14.7907C13.5549 14.5825 13.9844 14.2301 14.2865 13.7778C14.5887 13.3256 14.75 12.7939 14.75 12.25C14.7492 11.5209 14.4592 10.8219 13.9436 10.3064C13.4281 9.79082 12.7291 9.50083 12 9.5ZM12 14C11.6539 14 11.3155 13.8974 11.0278 13.7051C10.74 13.5128 10.5157 13.2395 10.3832 12.9197C10.2508 12.5999 10.2161 12.2481 10.2836 11.9086C10.3511 11.5691 10.5178 11.2573 10.7626 11.0126C11.0073 10.7678 11.3191 10.6011 11.6586 10.5336C11.9981 10.4661 12.3499 10.5008 12.6697 10.6332C12.9895 10.7657 13.2628 10.99 13.4551 11.2778C13.6474 11.5655 13.75 11.9039 13.75 12.25C13.75 12.7141 13.5656 13.1592 13.2374 13.4874C12.9092 13.8156 12.4641 14 12 14Z" fill="white"/>
</svg>
