<svg width="32" height="32" viewBox="0 0 32 32" fill="none" xmlns="http://www.w3.org/2000/svg">
<g clip-path="url(#clip0_9_7060)">
<path d="M31.9939 7.89209C31.9754 7.72117 31.9131 7.55791 31.8131 7.41807C31.7131 7.27823 31.5787 7.16654 31.4229 7.09377L16.4229 0.0937734C16.1548 -0.0312891 15.8452 -0.0312266 15.5771 0.0937734L0.577125 7.09377C0.421401 7.16651 0.287053 7.27815 0.187046 7.41793C0.087039 7.55771 0.0247491 7.72091 0.0061875 7.89177C0.00377528 7.92781 0.00171269 7.96388 7.67726e-10 7.99996L7.67726e-10 25C-7.82922e-06 25.1998 0.0598777 25.3951 0.171929 25.5606C0.28398 25.7261 0.443054 25.8542 0.628625 25.9284L15.6286 31.9284C15.867 32.0238 16.1329 32.0238 16.3713 31.9285L20.4358 30.303C21.6622 31.36 23.2577 32 25 32C28.8598 32 32 28.8598 32 25V7.99996C32 7.99496 31.9946 7.89896 31.9939 7.89209ZM16 2.10346L28.4839 7.92934L23.6769 9.85215L10.9579 4.4564L16 2.10346ZM15 29.5229L2 24.3229V9.47696L15 14.677V29.5229ZM16 12.9229L3.516 7.92934L8.51931 5.59446L21.0409 10.9065L16 12.9229ZM25 30C22.243 30 20 27.757 20 25C20 22.243 22.243 20 25 20C27.757 20 30 22.243 30 25C30 27.757 27.757 30 25 30ZM25 18C21.1402 18 18 21.1402 18 25C18 26.3572 18.3887 27.6251 19.06 28.6992L17 29.523V14.677L30 9.47696V20.1063C28.7285 18.8075 26.9569 18 25 18Z" fill="black"/>
<path d="M26.4142 25.0001L27.2071 24.2072C27.5977 23.8166 27.5977 23.1835 27.2071 22.7929C26.8166 22.4024 26.1834 22.4024 25.7929 22.7929L25 23.5858L24.2071 22.7929C23.8166 22.4024 23.1834 22.4024 22.7929 22.7929C22.4024 23.1834 22.4024 23.8166 22.7929 24.2071L23.5859 25.0001L22.793 25.7929C22.4024 26.1835 22.4024 26.8166 22.793 27.2072C22.9882 27.4024 23.2441 27.5001 23.5 27.5001C23.756 27.5001 24.0119 27.4024 24.2071 27.2072L25 26.4143L25.793 27.2072C25.9882 27.4024 26.2441 27.5001 26.5 27.5001C26.756 27.5001 27.0119 27.4024 27.2071 27.2072C27.5977 26.8166 27.5977 26.1835 27.2071 25.7929L26.4142 25.0001Z" fill="black"/>
</g>
<defs>
<clipPath id="clip0_9_7060">
<rect width="32" height="32" fill="white"/>
</clipPath>
</defs>
</svg>
