<svg width="24" height="24" viewBox="0 0 24 24" fill="none" xmlns="http://www.w3.org/2000/svg">
<path d="M21.773 10.825L13.6327 2.63117C13.6223 2.62062 13.6115 2.61039 13.6005 2.60046C12.7116 1.80238 11.3684 1.79953 10.4762 2.59386C10.4651 2.60375 10.4543 2.61394 10.4438 2.62441L2.22937 10.8226C1.92398 11.1275 1.92347 11.6221 2.22828 11.9275C2.53312 12.2329 3.02777 12.2334 3.33312 11.9286L3.95312 11.3098V18.0553C3.95312 19.7784 5.35499 21.1803 7.07812 21.1803H9.89062C10.3221 21.1803 10.6719 20.8305 10.6719 20.399V14.0319H13.4062V20.399C13.4062 20.8305 13.756 21.1803 14.1875 21.1803H16.9219C18.645 21.1803 20.0469 19.7784 20.0469 18.0553C20.0469 17.6238 19.6971 17.274 19.2656 17.274C18.8341 17.274 18.4844 17.6238 18.4844 18.0553C18.4844 18.9169 17.7834 19.6178 16.9219 19.6178H14.9687V13.2506C14.9687 12.8191 14.619 12.4694 14.1875 12.4694H9.89062C9.45913 12.4694 9.10937 12.8191 9.10937 13.2506V19.6178H7.07812C6.21656 19.6178 5.51562 18.9169 5.51562 18.0553V9.77405C5.51562 9.76624 5.5155 9.75847 5.51527 9.75073L11.5291 3.74874C11.6707 3.62844 11.8505 3.56256 12.0363 3.56295C12.2221 3.56335 12.4016 3.62999 12.5427 3.75089L18.4844 9.73175V14.1491C18.4844 14.5805 18.8341 14.9303 19.2656 14.9303C19.6971 14.9303 20.0469 14.5805 20.0469 14.1491V11.3045L20.6645 11.9263C20.737 11.9995 20.8234 12.0576 20.9185 12.0971C21.0136 12.1367 21.1157 12.157 21.2187 12.1569C21.4251 12.1572 21.6231 12.0755 21.7694 11.9299C22.0755 11.6258 22.0771 11.1311 21.773 10.825Z" fill="white"/>
</svg>
