<svg width="20" height="20" viewBox="0 0 20 20" fill="none" xmlns="http://www.w3.org/2000/svg">
<path d="M17.1077 14.3501C17.911 13.0414 18.3353 11.5354 18.3332 9.99974C18.3353 8.46407 17.911 6.95776 17.1077 5.64897L17.1032 5.64167C16.3579 4.42691 15.3136 3.42357 14.0699 2.72753C12.8263 2.0315 11.4249 1.66602 9.99979 1.66602C8.57463 1.66602 7.17328 2.0315 5.92965 2.72753C4.68602 3.42357 3.64166 4.42691 2.89638 5.64167L2.89189 5.64897C2.09055 6.95864 1.6665 8.46418 1.6665 9.99955C1.6665 11.5349 2.09055 13.0405 2.89189 14.3501L2.89657 14.3576C3.64188 15.5723 4.68624 16.5756 5.92986 17.2716C7.17348 17.9676 8.5748 18.3331 9.99993 18.333C11.4251 18.333 12.8264 17.9675 14.07 17.2715C15.3136 16.5755 16.3579 15.5722 17.1032 14.3574L17.1077 14.3501ZM11.065 16.9046C10.9061 17.0579 10.7233 17.1842 10.5238 17.2784C10.36 17.3562 10.181 17.3966 9.99969 17.3966C9.8184 17.3966 9.63938 17.3562 9.47563 17.2784C9.09596 17.0845 8.77095 16.7985 8.5303 16.4466C8.03889 15.7364 7.67472 14.9462 7.45408 14.1112C8.30178 14.059 9.15035 14.0324 9.99979 14.0314C10.8489 14.0314 11.6975 14.058 12.5457 14.1112C12.4235 14.5405 12.271 14.9605 12.0891 15.3681C11.8497 15.9414 11.5019 16.4631 11.065 16.9046ZM2.61904 10.4677H5.98029C6.0022 11.4056 6.10388 12.34 6.28423 13.2606C5.36537 13.3415 4.44889 13.4526 3.53478 13.594C2.99943 12.6335 2.68649 11.5652 2.61904 10.4677ZM3.53478 6.40534C4.44851 6.54692 5.36531 6.65803 6.28516 6.73868C6.10449 7.65924 6.00263 8.59352 5.98067 9.53139H2.61904C2.68652 8.43398 2.99945 7.3657 3.53478 6.40534ZM8.93461 3.09447C9.09343 2.9412 9.27625 2.81494 9.47582 2.72068C9.63957 2.64288 9.81859 2.60251 9.99988 2.60251C10.1812 2.60251 10.3602 2.64288 10.5239 2.72068C10.9036 2.9146 11.2286 3.2006 11.4693 3.55252C11.9607 4.26271 12.3249 5.05295 12.5455 5.88792C11.6978 5.94011 10.8492 5.9667 9.99979 5.9677C9.15072 5.9677 8.30209 5.94111 7.4539 5.88792C7.57604 5.45864 7.72862 5.0386 7.91045 4.63099C8.14989 4.05774 8.49763 3.53604 8.93461 3.09447ZM17.3805 9.53139H14.0193C13.9974 8.59349 13.8957 7.65915 13.7154 6.73849C14.6342 6.65759 15.5507 6.54648 16.4648 6.40516C17.0002 7.36557 17.3131 8.43391 17.3805 9.53139ZM7.22599 13.1878C7.0429 12.292 6.9395 11.3817 6.917 10.4677H13.0828C13.0605 11.3818 12.9573 12.2921 12.7743 13.188C11.8505 13.1273 10.9256 13.0963 9.99979 13.0951C9.07469 13.0951 8.15009 13.126 7.22599 13.1878ZM12.7736 6.81134C12.9567 7.70712 13.0601 8.61736 13.0826 9.53139H6.917C6.93929 8.61731 7.0425 7.70701 7.22543 6.81115C8.14928 6.87182 9.07413 6.90279 9.99998 6.90403C10.9251 6.90403 11.8495 6.87326 12.7736 6.81134ZM14.0189 10.4677H17.3805C17.3131 11.5651 17.0001 12.6334 16.4648 13.5938C15.5509 13.4522 14.6341 13.3411 13.7144 13.2604C13.8951 12.3399 13.997 11.4056 14.0189 10.4677ZM15.9034 5.54354C15.1044 5.65877 14.3031 5.75003 13.4994 5.81733C13.355 5.2795 13.1687 4.7538 12.9423 4.24503C12.7356 3.77688 12.4754 3.33418 12.167 2.92574C13.6572 3.38279 14.9649 4.299 15.9034 5.54354ZM4.76943 4.76901C5.62429 3.91333 6.676 3.28041 7.83236 2.92574C7.81476 2.94858 7.79678 2.97031 7.77955 2.99334C7.18517 3.84895 6.7522 4.80601 6.50202 5.81733C5.69827 5.74928 4.89639 5.65802 4.09639 5.54354C4.30269 5.27022 4.52756 5.01143 4.76943 4.76901ZM4.09639 14.4556C4.89527 14.3403 5.69658 14.2491 6.50033 14.1818C6.64475 14.7196 6.83103 15.2453 7.05745 15.7541C7.26421 16.2222 7.52437 16.6649 7.83274 17.0734C6.34254 16.6163 5.03485 15.7001 4.09639 14.4556ZM15.2305 15.2301C14.3757 16.0858 13.324 16.7187 12.1676 17.0734C12.1852 17.0505 12.2032 17.0288 12.2204 17.0058C12.8148 16.1502 13.2477 15.1931 13.4979 14.1818C14.3017 14.2498 15.1036 14.3411 15.9036 14.4556C15.6973 14.7289 15.4724 14.9877 15.2305 15.2301Z" fill="#9AA0AC"/>
</svg>
