<svg width="21" height="20" viewBox="0 0 21 20" fill="none" xmlns="http://www.w3.org/2000/svg">
<path d="M14.5126 19.0764C14.5126 19.3144 14.4181 19.5426 14.2498 19.7108C14.0816 19.8791 13.8534 19.9736 13.6154 19.9736H5.15739C4.36449 19.9727 3.60433 19.6573 3.04367 19.0967C2.48301 18.536 2.16764 17.7758 2.16675 16.983V3.82414C2.16764 3.03124 2.48301 2.27108 3.04367 1.71042C3.60433 1.14976 4.36449 0.834387 5.15739 0.833496H13.6154C13.8534 0.833496 14.0816 0.928021 14.2498 1.09628C14.4181 1.26453 14.5126 1.49274 14.5126 1.73069C14.5126 1.96864 14.4181 2.19684 14.2498 2.3651C14.0816 2.53335 13.8534 2.62788 13.6154 2.62788H5.15739C4.84023 2.62823 4.53616 2.75437 4.31189 2.97864C4.08762 3.2029 3.96148 3.50698 3.96113 3.82414V16.983C3.96147 17.3001 4.08761 17.6042 4.31188 17.8285C4.53615 18.0527 4.84022 18.1789 5.15739 18.1792H13.6154C13.8534 18.1792 14.0816 18.2737 14.2498 18.442C14.4181 18.6102 14.5126 18.8385 14.5126 19.0764ZM18.5706 9.76916L14.3071 5.50555C14.2241 5.42071 14.1251 5.35317 14.0159 5.30685C13.9066 5.26053 13.7893 5.23634 13.6706 5.23568C13.5519 5.23502 13.4343 5.25791 13.3246 5.30302C13.2148 5.34813 13.1151 5.41457 13.0312 5.49849C12.9473 5.5824 12.8809 5.68213 12.8358 5.79189C12.7907 5.90165 12.7678 6.01927 12.7685 6.13793C12.7691 6.2566 12.7933 6.37395 12.8397 6.48319C12.886 6.59244 12.9536 6.69141 13.0384 6.77437L15.7702 9.50635H8.70724C8.46929 9.50635 8.24109 9.60088 8.07283 9.76914C7.90457 9.93739 7.81005 10.1656 7.81005 10.4035C7.81005 10.6415 7.90457 10.8697 8.07283 11.038C8.24109 11.2062 8.46929 11.3007 8.70724 11.3007H15.7702L13.0382 14.0327C12.9546 14.1159 12.8881 14.2148 12.8427 14.3238C12.7973 14.4327 12.7739 14.5496 12.7737 14.6676C12.7736 14.7856 12.7967 14.9025 12.8418 15.0116C12.8869 15.1207 12.9531 15.2198 13.0365 15.3032C13.12 15.3867 13.2191 15.4529 13.3282 15.498C13.4372 15.543 13.5541 15.5662 13.6722 15.566C13.7902 15.5659 13.907 15.5424 14.016 15.497C14.1249 15.4516 14.2238 15.3852 14.3071 15.3015L18.5706 11.038C18.7389 10.8697 18.8334 10.6415 18.8334 10.4036C18.8334 10.1656 18.7389 9.93741 18.5706 9.76916Z" fill="#3A73C2"/>
</svg>
