<svg width="18" height="19" viewBox="0 0 18 19" fill="none" xmlns="http://www.w3.org/2000/svg">
<path d="M16.1479 16.2186L12.6273 12.6988C13.6477 11.4738 14.1566 9.90247 14.048 8.31182C13.9394 6.72117 13.2217 5.23362 12.0443 4.15863C10.8668 3.08363 9.32029 2.50395 7.72635 2.54018C6.13241 2.5764 4.6138 3.22574 3.48642 4.35312C2.35904 5.4805 1.7097 6.99911 1.67348 8.59305C1.63725 10.187 2.21693 11.7335 3.29193 12.911C4.36692 14.0884 5.85447 14.8061 7.44512 14.9147C9.03577 15.0233 10.6071 14.5144 11.8321 13.494L15.3519 17.0146C15.4042 17.0668 15.4663 17.1083 15.5345 17.1366C15.6028 17.1649 15.676 17.1794 15.7499 17.1794C15.8238 17.1794 15.897 17.1649 15.9653 17.1366C16.0336 17.1083 16.0956 17.0668 16.1479 17.0146C16.2001 16.9623 16.2416 16.9003 16.2699 16.832C16.2982 16.7637 16.3127 16.6905 16.3127 16.6166C16.3127 16.5427 16.2982 16.4695 16.2699 16.4012C16.2416 16.333 16.2001 16.2709 16.1479 16.2186ZM2.81242 8.74162C2.81242 7.74035 3.10933 6.76156 3.6656 5.92904C4.22188 5.09652 5.01253 4.44764 5.93758 4.06448C6.86263 3.68131 7.88053 3.58105 8.86256 3.77639C9.84459 3.97173 10.7466 4.45388 11.4546 5.16189C12.1626 5.86989 12.6448 6.77194 12.8401 7.75397C13.0355 8.736 12.9352 9.7539 12.5521 10.679C12.1689 11.604 11.52 12.3947 10.6875 12.9509C9.85497 13.5072 8.87618 13.8041 7.87492 13.8041C6.53271 13.8026 5.24591 13.2688 4.29683 12.3197C3.34775 11.3706 2.81391 10.0838 2.81242 8.74162Z" fill="#7E8695"/>
</svg>
