<svg width="24" height="25" viewBox="0 0 24 25" fill="none" xmlns="http://www.w3.org/2000/svg">
<path d="M20.6667 6.88667C20.6656 6.05244 20.3337 5.25269 19.7439 4.66281C19.154 4.07292 18.3542 3.74106 17.52 3.74H16.952V3.16667C16.952 2.98986 16.8818 2.82029 16.7567 2.69526C16.6317 2.57024 16.4621 2.5 16.2853 2.5C16.1085 2.5 15.939 2.57024 15.8139 2.69526C15.6889 2.82029 15.6187 2.98986 15.6187 3.16667V3.74H7.048V3.16667C7.048 2.98986 6.97776 2.82029 6.85274 2.69526C6.72771 2.57024 6.55814 2.5 6.38133 2.5C6.20452 2.5 6.03495 2.57024 5.90993 2.69526C5.7849 2.82029 5.71467 2.98986 5.71467 3.16667V3.74H5.14667C4.31244 3.74106 3.51269 4.07292 2.92281 4.66281C2.33292 5.25269 2.00106 6.05244 2 6.88667V18.02C2.00106 18.8542 2.33292 19.654 2.92281 20.2439C3.51269 20.8337 4.31244 21.1656 5.14667 21.1667H12.276C13.3286 22.0235 14.6428 22.4941 16 22.5C17.5908 22.4982 19.1159 21.8655 20.2407 20.7407C21.3655 19.6159 21.9982 18.0908 22 16.5C21.9941 15.1428 21.5235 13.8286 20.6667 12.776V6.88667ZM5.14667 5.07333H5.71467V5.64267C5.71467 5.81948 5.7849 5.98905 5.90993 6.11407C6.03495 6.2391 6.20452 6.30933 6.38133 6.30933C6.55814 6.30933 6.72771 6.2391 6.85274 6.11407C6.97776 5.98905 7.048 5.81948 7.048 5.64267V5.07333H15.6187V5.64267C15.6187 5.81948 15.6889 5.98905 15.8139 6.11407C15.939 6.2391 16.1085 6.30933 16.2853 6.30933C16.4621 6.30933 16.6317 6.2391 16.7567 6.11407C16.8818 5.98905 16.952 5.81948 16.952 5.64267V5.07333H17.52C18.0007 5.07404 18.4615 5.26531 18.8014 5.60523C19.1414 5.94514 19.3326 6.40596 19.3333 6.88667V7.452H3.33333V6.88667C3.33404 6.40596 3.52531 5.94514 3.86523 5.60523C4.20514 5.26531 4.66596 5.07404 5.14667 5.07333ZM3.33333 18.02V8.78533H19.3333V11.516C18.18 10.7429 16.7941 10.394 15.4123 10.5291C14.0304 10.6641 12.7383 11.2747 11.7565 12.2565C10.7747 13.2383 10.1641 14.5304 10.0291 15.9123C9.89405 17.2941 10.2429 18.68 11.016 19.8333H5.14667C4.66596 19.8326 4.20514 19.6414 3.86523 19.3014C3.52531 18.9615 3.33404 18.5007 3.33333 18.02ZM16 21.1667C15.077 21.1667 14.1748 20.893 13.4073 20.3802C12.6399 19.8674 12.0418 19.1386 11.6886 18.2859C11.3354 17.4331 11.2429 16.4948 11.423 15.5896C11.6031 14.6843 12.0475 13.8528 12.7002 13.2002C13.3528 12.5475 14.1843 12.1031 15.0896 11.923C15.9948 11.7429 16.9331 11.8354 17.7859 12.1886C18.6386 12.5418 19.3674 13.1399 19.8802 13.9073C20.393 14.6748 20.6667 15.577 20.6667 16.5C20.6653 17.7372 20.1731 18.9234 19.2983 19.7983C18.4234 20.6731 17.2372 21.1653 16 21.1667Z" fill="white"/>
<path d="M16.6667 16.224V13.8333C16.6667 13.6565 16.5964 13.487 16.4714 13.3619C16.3464 13.2369 16.1768 13.1667 16 13.1667C15.8232 13.1667 15.6536 13.2369 15.5286 13.3619C15.4036 13.487 15.3333 13.6565 15.3333 13.8333V16.5C15.3334 16.6765 15.4034 16.8457 15.528 16.9707L16.8613 18.304C16.9878 18.4206 17.1545 18.4838 17.3265 18.4803C17.4985 18.4769 17.6625 18.4071 17.7842 18.2855C17.906 18.164 17.976 18.0001 17.9797 17.8281C17.9834 17.6561 17.9204 17.4893 17.804 17.3627L16.6667 16.224Z" fill="white"/>
</svg>
